#!OML:ASF F:\VICON\USERDATA\INSTALL\rory3\rory3.ASF
:FULLY-SPECIFIED
:DEGREES
371
root -0.0648125 17.9402 -0.981859 1.12523 -6.85328 2.21673
lowerback -1.6099 -1.74092 -5.08179
upperback 0.321495 -2.24173 1.83292
thorax 1.50425 -1.17392 4.67617
lowerneck -16.1471 -0.0927475 -10.2308
upperneck 26.3337 1.82649 3.34885
head 11.0914 0.207117 3.21192
rclavicle 1.81143e-014 -3.18055e-015
rhumerus -34.2004 -7.88779 -77.8441
rradius 49.9727
rwrist 12.8676
rhand -29.5097 11.19
rfingers 7.12502
rthumb -2.84394 -18.7708
lclavicle 1.81143e-014 -3.18055e-015
lhumerus 3.63134 -29.0483 76.8687
lradius 113.013
lwrist 1.99313
lhand -21.4798 29.728
lfingers 7.12502
lthumb 4.9111 59.6511
rfemur -7.38537 6.12598 14.2335
rtibia 26.4856
rfoot -17.3205 -3.44714
rtoes 4.00761
lfemur -0.146678 -2.97871 -22.4418
ltibia 14.0143
lfoot -10.9289 3.71164
ltoes -12.0626
372
root -0.063331 17.9416 -0.982325 1.10634 -6.83894 2.24911
lowerback -1.52839 -1.74006 -5.07161
upperback 0.330511 -2.24442 1.81829
thorax 1.46708 -1.17426 4.65744
lowerneck -16.1322 -0.101938 -10.1522
upperneck 26.1714 1.79795 3.31025
head 11.0304 0.203224 3.1761
rclavicle 4.99322e-014 2.38542e-015
rhumerus -34.4428 -8.40509 -77.6139
rradius 49.1541
rwrist 13.1833
rhand -29.7071 11.4402
rfingers 7.12502
rthumb -3.03455 -18.5179
lclavicle 4.99322e-014 2.38542e-015
lhumerus 4.03988 -28.9577 76.6043
lradius 113.169
lwrist 2.10802
lhand -21.3282 29.8102
lfingers 7.12502
lthumb 5.05741 59.7299
rfemur -7.38752 6.13346 14.1961
rtibia 26.5162
rfoot -17.3421 -3.47149
rtoes 4.02701
lfemur -0.0918187 -2.91857 -22.4717
ltibia 13.9823
lfoot -10.9269 3.58398
ltoes -12.0493
373
root -0.0619344 17.9423 -0.981568 1.11908 -6.87171 2.28186
lowerback -1.52226 -1.74708 -5.08096
upperback 0.332256 -2.25419 1.83956
thorax 1.46787 -1.17944 4.68467
lowerneck -16.1383 -0.0758689 -10.16
upperneck 26.0198 1.83362 3.31943
head 10.9714 0.225592 3.18159
rclavicle 1.33558e-014 -7.95139e-015
rhumerus -34.6709 -8.86491 -77.3278
rradius 48.3579
rwrist 13.7104
rhand -29.6158 11.951
rfingers 7.12502
rthumb -2.9464 -18.0084
lclavicle 1.33558e-014 -7.95139e-015
lhumerus 4.40814 -28.8679 76.3409
lradius 113.389
lwrist 2.14093
lhand -21.4218 29.8066
lfingers 7.12502
lthumb 4.96711 59.7283
rfemur -7.41949 6.16765 14.1612
rtibia 26.5498
rfoot -17.35 -3.53549
rtoes 3.40311
lfemur -0.0680198 -2.92838 -22.5112
ltibia 13.9475
lfoot -10.8566 3.58287
ltoes -11.9189
374
root -0.0589132 17.9426 -0.976346 1.13853 -6.92471 2.36473
lowerback -1.61455 -1.75144 -5.09991
upperback 0.350769 -2.25498 1.84453
thorax 1.53989 -1.18249 4.69734
lowerneck -16.1356 -0.0477892 -10.2155
upperneck 25.8703 1.86979 3.38193
head 10.9102 0.250107 3.21459
rclavicle 1.46728e-014 -1.66979e-014
rhumerus -34.9061 -9.25844 -77.0072
rradius 47.6624
rwrist 14.398
rhand -29.2153 12.3736
rfingers 7.12502
rthumb -2.55965 -17.5908
lclavicle 1.46728e-014 -1.66979e-014
lhumerus 4.73023 -28.7605 76.1318
lradius 113.553
lwrist 2.07196
lhand -21.5675 29.836
lfingers 7.12502
lthumb 4.82639 59.761
rfemur -7.4471 6.16632 14.0504
rtibia 26.577
rfoot -17.3774 -3.46149
rtoes 3.40273
lfemur -0.0622702 -2.8756 -22.6132
ltibia 13.9229
lfoot -10.844 3.60155
ltoes -11.9245
375
root -0.055032 17.9424 -0.971503 1.18665 -6.9818 2.40833
lowerback -1.71205 -1.76845 -5.06267
upperback 0.367296 -2.27377 1.85885
thorax 1.61308 -1.19407 4.68712
lowerneck -16.2003 -0.0039747 -10.2093
upperneck 25.6913 1.93344 3.39149
head 10.8504 0.28783 3.22159
rclavicle 1.76421e-014 -1.51076e-014
rhumerus -35.1461 -9.44752 -76.7648
rradius 47.1074
rwrist 14.8156
rhand -29.0692 12.3408
rfingers 7.12502
rthumb -2.41857 -17.6252
lclavicle 1.76421e-014 -1.51076e-014
lhumerus 4.95232 -28.5945 75.9634
lradius 113.68
lwrist 1.74916
lhand -21.674 29.8459
lfingers 7.12502
lthumb 4.72354 59.7732
rfemur -7.51916 6.1582 13.974
rtibia 26.615
rfoot -17.3684 -3.41513
rtoes 3.42629
lfemur -0.0666039 -2.80182 -22.6742
ltibia 13.8653
lfoot -10.8563 3.57455
ltoes -12.0215
376
root -0.052066 17.9429 -0.969576 1.24315 -6.97896 2.42642
lowerback -1.74803 -1.84413 -5.01939
upperback 0.36255 -2.375 1.91275
thorax 1.64104 -1.24537 4.71356
lowerneck -16.3063 0.0522778 -10.3008
upperneck 25.5468 2.0463 3.40661
head 10.8075 0.337891 3.25494
rclavicle 6.16232e-015 -1.03368e-014
rhumerus -35.3364 -9.4926 -76.5706
rradius 46.5866
rwrist 15.0208
rhand -29.1561 12.1597
rfingers 7.12502
rthumb -2.50244 -17.8054
lclavicle 6.16232e-015 -1.03368e-014
lhumerus 5.10778 -28.2801 75.8141
lradius 113.747
lwrist 1.26083
lhand -21.8081 29.5873
lfingers 7.12502
lthumb 4.59412 59.5175
rfemur -7.58871 6.19369 13.9426
rtibia 26.6498
rfoot -17.3777 -3.46247
rtoes 3.29721
lfemur -0.0947323 -2.70566 -22.6923
ltibia 13.7929
lfoot -10.8377 3.47181
ltoes -12.0668
